<svg xmlns="http://www.w3.org/2000/svg" viewBox="0 0 1536 1024" font-family="'Helvetica Neue', Arial, 'PingFang TC', sans-serif">
  <g transform="translate(60,202) scale(0.4944)">
    <path fill="#009E9C" d="M 231,843 L 323,844 L 374,768 L 378,765 L 556,765 L 583,741 L 583,702 L 581,700 L 323,700 L 246,817 Z"/>
    <path fill="#009E9C" d="M 868,594 L 628,237 L 386,594 L 607,596 L 607,537 L 515,537 L 513,533 L 627,368 L 741,533 L 739,537 L 648,537 L 648,596 Z"/>
    <path fill="#DAAF49" d="M 646,802 L 645,949 L 647,951 L 1091,950 L 1038,868 L 734,868 L 686,800 L 648,800 Z"/>
    <path fill="#DAAF49" d="M 609,802 L 607,800 L 568,800 L 521,868 L 216,868 L 162,949 L 163,951 L 607,951 L 609,949 Z"/>
    <path fill="#EC9F04" d="M 333,675 L 334,678 L 601,678 L 604,681 L 606,741 L 649,740 L 650,681 L 653,678 L 921,677 L 882,618 L 372,618 Z"/>
    <path fill="#0080E2" d="M 671,702 L 671,741 L 699,765 L 878,765 L 882,768 L 932,844 L 1023,844 L 1024,842 L 932,700 L 673,700 Z"/>
  </g>
  <text x="650" y="530" font-size="150" font-weight="600">
    <tspan fill="#FFFFFF">Straw</tspan><tspan fill="#009E9C">WU</tspan>
  </text>
  <text x="655" y="618" font-size="52" font-weight="400" fill="#8B98A8" letter-spacing="1">Desktop OS · Dual Runtime</text>
</svg>
